<svg width="64" height="83" viewBox="0 0 64 83" fill="none" xmlns="http://www.w3.org/2000/svg">
<circle cx="32" cy="32" r="32" fill="#C7C7C7"/>
<rect x="19.9742" y="31.9235" width="30.2238" height="42.7552" rx="7" transform="rotate(2.5 19.9742 31.9235)" fill="white" stroke="#A8A8A8" stroke-width="2"/>
<rect x="0.20182" y="28.2485" width="34.2238" height="46.7552" rx="9" transform="rotate(-7.5 0.20182 28.2485)" fill="white" stroke="#A8A8A8" stroke-width="2"/>
<path d="M2.368 37.0409C1.7913 32.6605 4.87487 28.6419 9.25535 28.0652L25.3403 25.9475C29.7208 25.3708 33.7394 28.4544 34.3161 32.8349L34.6155 35.109L2.66739 39.315L2.368 37.0409Z" fill="white"/>
<rect x="40.2197" y="26.2461" width="1.34266" height="4.47552" rx="0.671329" transform="rotate(82.5 40.2197 26.2461)" fill="#A8A8A8"/>
<rect x="27.9584" y="18.832" width="1.34266" height="4.47552" rx="0.671329" transform="rotate(-7.5 27.9584 18.832)" fill="#A8A8A8"/>
<rect x="35.8253" y="20.0532" width="1.34266" height="4.47552" rx="0.671329" transform="rotate(37.5 35.8253 20.0532)" fill="#A8A8A8"/>
<rect x="6.00708" y="40.6812" width="25.958" height="1.79021" rx="0.895105" transform="rotate(-7.5 6.00708 40.6812)" fill="#A8A8A8"/>
<rect x="7.17542" y="49.5557" width="25.958" height="1.79021" rx="0.895105" transform="rotate(-7.5 7.17542 49.5557)" fill="#A8A8A8"/>
<rect x="8.34381" y="58.4302" width="25.958" height="1.79021" rx="0.895105" transform="rotate(-7.5 8.34381 58.4302)" fill="#A8A8A8"/>
<rect x="6.47449" y="44.231" width="9.3986" height="1.79021" rx="0.895105" transform="rotate(-7.5 6.47449 44.231)" fill="#A8A8A8"/>
<rect x="7.6427" y="53.1055" width="9.3986" height="1.79021" rx="0.895105" transform="rotate(-7.5 7.6427 53.1055)" fill="#A8A8A8"/>
<rect x="8.81122" y="61.98" width="9.3986" height="1.79021" rx="0.895105" transform="rotate(-7.5 8.81122 61.98)" fill="#A8A8A8"/>
</svg>
